Coordinates
version=1
nRows=7
nColumns=46
inDegrees=yes

Units are S.I. units (second, meters, Newtons, ...)
Angles are in degrees.

endheader
time	pelvis_tilt	pelvis_list	pelvis_rotation	pelvis_tx	pelvis_ty	pelvis_tz	bb_angle	bb_tx	bb_ty	bb_tz	hip_flexion_r	hip_adduction_r	hip_rotation_r	knee_angle_r	knee_angle_r_beta	ankle_angle_r	subtalar_angle_r	mtp_angle_r	crank_angle_r	hip_flexion_l	hip_adduction_l	hip_rotation_l	knee_angle_l	knee_angle_l_beta	ankle_angle_l	subtalar_angle_l	mtp_angle_l	crank_angle_l	lumbar_extension	lumbar_bending	lumbar_rotation	arm_flex_r	arm_add_r	arm_rot_r	elbow_flex_r	pro_sup_r	wrist_flex_r	wrist_dev_r	arm_flex_l	arm_add_l	arm_rot_l	elbow_flex_l	pro_sup_l	wrist_flex_l	wrist_dev_l
      7.50000000	    -30.17739187	     -8.06426931	     -5.99308553	      0.41096855	      1.05608875	     -0.23404606	      0.00000000	      0.50000000	      0.00000000	      0.25000000	     65.32283442	      8.79092618	      3.08945683	    108.78915578	      1.89872896	     16.15341932	     -3.51453750	      0.00000000	      0.00000000	     44.63727776	    -15.49609660	     -0.60309443	     34.15694181	      0.59615110	     -5.06844559	     -4.75958604	      0.00000000	      0.00000000	    -53.99817139	      4.04471413	      4.36082333	     61.36206915	    -33.49212141	     59.56359001	     79.41229545	     54.14334090	      0.00000000	      0.00000000	     29.58284673	    -37.79438424	     27.56564519	     91.36904834	     49.40380648	      0.00000000	      0.00000000
      7.50500000	    -30.29756423	     -8.37927561	     -6.76135603	      0.41092591	      1.05558384	     -0.23401695	      0.00000000	      0.50000000	      0.00000000	      0.25000000	     66.76045376	      9.46836849	      3.06186422	    110.04120099	      1.92058127	     17.08642716	     -3.00425633	      0.00000000	      0.00000000	     43.35943454	    -16.22724311	     -1.33636416	     32.77788558	      0.57208203	     -6.39972448	     -4.64925113	      0.00000000	      0.00000000	    -53.89982728	      4.14854968	      5.15142231	     61.71809345	    -33.63688047	     59.93113550	     79.43432211	     54.18251629	      0.00000000	      0.00000000	     29.20088558	    -37.33702530	     27.32546484	     91.23588498	     49.37071258	      0.00000000	      0.00000000
      7.51000000	    -30.42197144	     -8.75507778	     -7.34693545	      0.41072769	      1.05515954	     -0.23421765	      0.00000000	      0.50000000	      0.00000000	      0.25000000	     68.19132357	      9.99172205	      2.78469852	    111.15278361	      1.93998205	     17.90820802	     -2.89584117	      0.00000000	      0.00000000	     42.20233835	    -16.87130622	     -1.80871925	     31.53627189	      0.55041178	     -7.66407942	     -4.30538315	      0.00000000	      0.00000000	    -53.82380173	      4.46044018	      5.82765554	     62.15340273	    -33.67686888	     60.10738326	     79.59392891	     54.21817476	      0.00000000	      0.00000000	     28.87057383	    -37.03209140	     27.21768283	     91.08762148	     49.34190631	      0.00000000	      0.00000000
      7.51500000	    -30.38031892	     -8.92862365	     -8.06183281	      0.41079184	      1.05508279	     -0.23460427	      0.00000000	      0.50000000	      0.00000000	      0.25000000	     69.40182905	     10.42819043	      2.79903376	    112.13154752	      1.95706470	     18.99029409	     -2.23883319	      0.00000000	      0.00000000	     40.76858376	    -17.40252033	     -2.71035204	     30.31671514	      0.52912650	     -9.04035348	     -4.27319591	      0.00000000	      0.00000000	    -53.96853700	      4.61388553	      6.66241535	     63.57679995	    -34.65908589	     62.19122651	     80.33020917	     54.56279720	      0.00000000	      0.00000000	     28.43863529	    -35.70511191	     25.97711377	     90.24760505	     49.12251133	      0.00000000	      0.00000000
      7.52000000	    -30.57603054	     -9.23449038	     -8.72810547	      0.41068411	      1.05482971	     -0.23459077	      0.00000000	      0.50000000	      0.00000000	      0.25000000	     70.83187756	     11.01807287	      2.57406634	    112.86789682	      1.96991642	     19.72971429	     -2.15187969	      0.00000000	      0.00000000	     39.75532103	    -18.08075280	     -3.42774424	     29.40051606	      0.51313581	    -10.09370000	     -3.92217093	      0.00000000	      0.00000000	    -53.87583716	      4.78133712	      7.27616112	     63.92646578	    -34.66831594	     62.25929754	     80.33862889	     54.56162964	      0.00000000	      0.00000000	     28.12646368	    -35.52159912	     25.99290789	     90.22843067	     49.12687992	      0.00000000	      0.00000000
      7.52500000	    -30.54610715	     -9.29393501	     -9.72244317	      0.41097605	      1.05496259	     -0.23399607	      0.00000000	      0.50000000	      0.00000000	      0.25000000	     71.97635719	     11.82082524	      2.75156561	    113.49316724	      1.98082945	     20.74306287	     -1.55404453	      0.00000000	      0.00000000	     38.33553791	    -18.82796287	     -5.01334949	     28.55522844	      0.49838275	    -11.04029118	     -3.21552224	      0.00000000	      0.00000000	    -53.99673179	      4.46356943	      7.98914822	     64.89328665	    -35.01909131	     63.64179433	     80.45606560	     54.72795464	      0.00000000	      0.00000000	     27.73001640	    -34.58774432	     25.13538355	     89.63009798	     48.97777069	      0.00000000	      0.00000000
      7.53000000	    -30.59527440	     -9.40942350	    -10.46488258	      0.41095418	      1.05505661	     -0.23394571	      0.00000000	      0.50000000	      0.00000000	      0.25000000	     73.19839337	     12.37453558	      2.69930491	    113.95531021	      1.98889536	     21.39064602	     -1.38126175	      0.00000000	      0.00000000	     37.22725311	    -19.39881511	     -6.18886153	     27.98489926	      0.48842863	    -11.92819788	     -2.79290517	      0.00000000	      0.00000000	    -54.05467598	      4.48328702	      8.55523630	     65.79412975	    -35.20762520	     64.70815507	     80.42287020	     54.83843924	      0.00000000	      0.00000000	     27.33868952	    -34.02818173	     24.58011916	     89.31608037	     48.90940334	      0.00000000	      0.00000000
